<?xml version="1.0" encoding="UTF-8" standalone="no"?>
<!DOCTYPE svg PUBLIC "-//W3C//DTD SVG 1.1//EN" "http://www.w3.org/Graphics/SVG/1.1/DTD/svg11.dtd">
<svg width="100%" height="100%" viewBox="0 0 179 45" version="1.1" xmlns="http://www.w3.org/2000/svg" xmlns:xlink="http://www.w3.org/1999/xlink" xml:space="preserve" xmlns:serif="http://www.serif.com/" style="fill-rule:evenodd;clip-rule:evenodd;stroke-linejoin:round;stroke-miterlimit:2;">
    <g id="Laag_1" transform="matrix(1,0,0,1,-0.107376,-0)">
        <g transform="matrix(1,0,0,1,1,0)">
            <g transform="matrix(1.703518,0,0,1.703518,-32.687437,-4.908543)">
                <path d="M43.88,23.97L43.88,10.64L48.67,10.64C49.74,10.64 50.59,10.83 51.21,11.22C51.83,11.61 52.27,12.11 52.54,12.71C52.8,13.32 52.94,13.95 52.94,14.61C52.94,15.07 52.86,15.53 52.71,15.99C52.56,16.45 52.31,16.88 51.97,17.27C51.63,17.66 51.19,17.97 50.65,18.21C50.11,18.45 49.45,18.57 48.67,18.57L45.21,18.57L45.21,23.97L43.88,23.97ZM45.21,17.31L48.74,17.31C49.45,17.31 50.02,17.17 50.44,16.9C50.86,16.63 51.16,16.28 51.33,15.86C51.51,15.45 51.6,15.03 51.6,14.61C51.6,14.19 51.52,13.79 51.36,13.37C51.2,12.95 50.91,12.6 50.49,12.32C50.07,12.04 49.49,11.9 48.74,11.9L45.21,11.9L45.21,17.32L45.21,17.31Z" style="fill:rgb(2,46,61);fill-rule:nonzero;"/>
                <path d="M45.46,24.22L43.62,24.22L43.62,10.38L48.66,10.38C49.78,10.38 50.68,10.59 51.34,11C52,11.41 52.48,11.95 52.76,12.61C53.04,13.25 53.18,13.92 53.18,14.61C53.18,15.09 53.1,15.58 52.94,16.07C52.78,16.56 52.51,17.02 52.15,17.44C51.79,17.86 51.31,18.2 50.74,18.45C50.17,18.7 49.47,18.83 48.66,18.83L45.46,18.83L45.46,24.23L45.46,24.22ZM44.13,23.71L44.96,23.71L44.96,18.31L48.67,18.31C49.41,18.31 50.04,18.2 50.55,17.97C51.05,17.75 51.46,17.45 51.78,17.09C52.1,16.73 52.33,16.33 52.47,15.9C52.61,15.46 52.69,15.02 52.69,14.6C52.69,13.98 52.56,13.38 52.32,12.8C52.08,12.24 51.66,11.78 51.09,11.42C50.51,11.06 49.7,10.88 48.68,10.88L44.14,10.88L44.14,23.7L44.13,23.71ZM48.74,17.56L44.95,17.56L44.95,11.63L48.74,11.63C49.54,11.63 50.17,11.79 50.63,12.1C51.09,12.41 51.41,12.81 51.59,13.27C51.76,13.72 51.85,14.16 51.85,14.6C51.85,15.04 51.75,15.5 51.56,15.95C51.37,16.41 51.03,16.8 50.57,17.1C50.11,17.4 49.49,17.55 48.73,17.55L48.74,17.56ZM45.46,17.05L48.74,17.05C49.4,17.05 49.92,16.93 50.3,16.68C50.67,16.43 50.94,16.12 51.1,15.75C51.26,15.37 51.35,14.98 51.35,14.6C51.35,14.22 51.27,13.84 51.13,13.45C50.99,13.08 50.73,12.77 50.36,12.52C49.99,12.27 49.45,12.14 48.75,12.14L45.47,12.14L45.47,17.05L45.46,17.05Z" style="fill:rgb(2,46,61);fill-rule:nonzero;"/>
            </g>
            <g transform="matrix(1.703518,0,0,1.703518,-32.687437,-4.908543)">
                <path d="M57.93,24.2C56.65,24.2 55.64,23.75 54.89,22.83C54.14,21.91 53.78,20.68 53.78,19.11C53.78,18.06 53.95,17.16 54.28,16.4C54.62,15.64 55.1,15.05 55.72,14.63C56.34,14.21 57.08,14.01 57.93,14.01C58.78,14.01 59.53,14.21 60.15,14.62C60.77,15.03 61.25,15.61 61.58,16.38C61.91,17.14 62.08,18.05 62.08,19.09C62.08,20.13 61.91,21.04 61.58,21.81C61.24,22.58 60.76,23.16 60.14,23.58C59.52,23.99 58.78,24.2 57.93,24.2ZM57.93,22.94C58.81,22.94 59.49,22.6 59.98,21.92C60.47,21.24 60.72,20.3 60.72,19.09C60.72,17.88 60.47,16.94 59.98,16.26C59.49,15.58 58.8,15.25 57.93,15.25C57.06,15.25 56.35,15.59 55.87,16.25C55.38,16.92 55.14,17.87 55.14,19.1C55.14,20.33 55.38,21.25 55.87,21.92C56.36,22.59 57.04,22.92 57.93,22.92L57.93,22.94Z" style="fill:rgb(2,46,61);fill-rule:nonzero;"/>
                <path d="M57.93,24.45C56.57,24.45 55.49,23.96 54.7,22.99C53.92,22.04 53.53,20.73 53.53,19.11C53.53,18.03 53.71,17.09 54.06,16.29C54.42,15.49 54.93,14.86 55.59,14.41C56.25,13.96 57.04,13.74 57.94,13.74C58.84,13.74 59.64,13.96 60.3,14.4C60.96,14.83 61.48,15.46 61.83,16.27C62.18,17.06 62.35,18.01 62.35,19.08C62.35,20.15 62.17,21.11 61.82,21.9C61.46,22.71 60.95,23.34 60.29,23.78C59.63,24.22 58.84,24.44 57.94,24.44L57.93,24.45ZM57.93,14.26C57.13,14.26 56.44,14.46 55.86,14.84C55.28,15.23 54.83,15.79 54.51,16.5C54.19,17.23 54.03,18.11 54.03,19.11C54.03,20.61 54.39,21.81 55.09,22.67C55.79,23.53 56.72,23.94 57.93,23.94C58.73,23.94 59.42,23.75 60,23.36C60.58,22.98 61.03,22.42 61.35,21.7C61.67,20.97 61.83,20.09 61.83,19.08C61.83,18.07 61.67,17.19 61.35,16.47C61.04,15.76 60.59,15.2 60.01,14.82C59.43,14.44 58.73,14.25 57.93,14.25L57.93,14.26ZM57.93,23.19C56.97,23.19 56.2,22.82 55.67,22.08C55.15,21.37 54.89,20.37 54.89,19.11C54.89,17.85 55.15,16.82 55.67,16.11C56.21,15.37 56.97,15 57.94,15C58.91,15 59.66,15.37 60.2,16.11C60.72,16.83 60.99,17.83 60.99,19.09C60.99,20.35 60.73,21.35 60.2,22.07C59.66,22.82 58.9,23.19 57.94,23.19L57.93,23.19ZM57.93,15.51C57.12,15.51 56.51,15.8 56.07,16.41C55.62,17.03 55.39,17.94 55.39,19.11C55.39,20.28 55.62,21.16 56.07,21.78C56.51,22.39 57.12,22.68 57.92,22.68C58.72,22.68 59.32,22.38 59.77,21.77C60.23,21.14 60.46,20.24 60.46,19.09C60.46,17.94 60.23,17.04 59.77,16.41C59.32,15.8 58.72,15.5 57.92,15.5L57.93,15.51Z" style="fill:rgb(2,46,61);fill-rule:nonzero;"/>
            </g>
            <g transform="matrix(1.703518,0,0,1.703518,-32.687437,-4.908543)">
                <path d="M66.57,24.2C65.92,24.2 65.3,24.06 64.7,23.78C64.1,23.5 63.6,23.11 63.2,22.62L64.17,21.79C64.52,22.17 64.91,22.47 65.33,22.67C65.75,22.88 66.17,22.98 66.59,22.98C67.21,22.98 67.69,22.85 68.03,22.6C68.37,22.35 68.54,21.99 68.54,21.53C68.54,21.24 68.46,20.98 68.31,20.75C68.15,20.52 67.9,20.3 67.55,20.09C67.2,19.88 66.74,19.67 66.17,19.46C65.14,19.08 64.4,18.66 63.95,18.21C63.5,17.76 63.27,17.19 63.27,16.52C63.27,15.77 63.56,15.16 64.14,14.7C64.72,14.24 65.48,14 66.41,14C67.03,14 67.6,14.12 68.14,14.36C68.68,14.6 69.14,14.94 69.52,15.38L68.59,16.16C67.97,15.53 67.23,15.21 66.39,15.21C65.84,15.21 65.4,15.33 65.08,15.56C64.76,15.79 64.6,16.11 64.6,16.52C64.6,16.9 64.76,17.22 65.09,17.49C65.42,17.76 66.02,18.06 66.9,18.38C67.61,18.65 68.18,18.93 68.61,19.22C69.04,19.51 69.35,19.85 69.55,20.22C69.74,20.6 69.84,21.03 69.84,21.52C69.84,22.35 69.55,23.01 68.96,23.48C68.38,23.96 67.57,24.19 66.55,24.19L66.57,24.2Z" style="fill:rgb(2,46,61);fill-rule:nonzero;"/>
                <path d="M66.57,24.45C65.88,24.45 65.22,24.3 64.59,24.01C63.97,23.72 63.43,23.3 63,22.78L62.84,22.59L64.19,21.44L64.35,21.62C64.68,21.98 65.04,22.25 65.44,22.45C65.83,22.64 66.21,22.74 66.59,22.74C67.15,22.74 67.59,22.63 67.88,22.41C68.15,22.21 68.28,21.92 68.28,21.55C68.28,21.31 68.22,21.1 68.09,20.91C67.96,20.71 67.73,20.51 67.42,20.33C67.09,20.13 66.63,19.93 66.08,19.72C65,19.32 64.25,18.89 63.77,18.41C63.27,17.91 63.02,17.28 63.02,16.54C63.02,15.71 63.35,15.03 63.99,14.52C64.62,14.02 65.43,13.77 66.42,13.77C67.07,13.77 67.68,13.9 68.26,14.15C68.83,14.4 69.32,14.77 69.73,15.24L69.9,15.44L68.59,16.54L68.43,16.37C67.85,15.78 67.19,15.49 66.41,15.49C65.92,15.49 65.53,15.59 65.25,15.79C65,15.97 64.88,16.22 64.88,16.54C64.88,16.84 65.01,17.09 65.28,17.31C65.59,17.56 66.17,17.85 67.02,18.16C67.75,18.43 68.34,18.73 68.79,19.03C69.26,19.35 69.6,19.72 69.81,20.13C70.02,20.54 70.13,21.02 70.13,21.54C70.13,22.45 69.8,23.17 69.16,23.7C68.53,24.21 67.67,24.47 66.59,24.47L66.57,24.45ZM63.56,22.64C63.91,23.02 64.33,23.32 64.81,23.54C65.37,23.8 65.96,23.94 66.57,23.94C67.53,23.94 68.28,23.72 68.82,23.28C69.35,22.85 69.6,22.27 69.6,21.52C69.6,21.08 69.51,20.68 69.34,20.34C69.17,20.01 68.88,19.7 68.49,19.43C68.07,19.15 67.52,18.87 66.83,18.61C65.92,18.27 65.31,17.97 64.95,17.68C64.56,17.36 64.36,16.97 64.36,16.52C64.36,16.03 64.56,15.64 64.95,15.36C65.32,15.1 65.81,14.96 66.41,14.96C67.25,14.96 67.99,15.25 68.62,15.83L69.17,15.37C68.85,15.05 68.48,14.79 68.05,14.6C67.54,14.38 66.99,14.26 66.42,14.26C65.55,14.26 64.84,14.48 64.31,14.9C63.79,15.32 63.53,15.85 63.53,16.52C63.53,17.13 63.73,17.63 64.13,18.03C64.55,18.45 65.26,18.86 66.26,19.22C66.84,19.44 67.32,19.66 67.68,19.87C68.06,20.1 68.34,20.34 68.52,20.61C68.7,20.89 68.8,21.2 68.8,21.53C68.8,22.07 68.6,22.5 68.19,22.8C67.81,23.09 67.27,23.23 66.59,23.23C66.14,23.23 65.68,23.11 65.22,22.89C64.84,22.7 64.48,22.45 64.15,22.13L63.55,22.64L63.56,22.64Z" style="fill:rgb(2,46,61);fill-rule:nonzero;"/>
            </g>
            <g transform="matrix(1.703518,0,0,1.703518,-32.687437,-4.908543)">
                <path d="M74.13,24.2C73.49,24.2 73,24 72.67,23.61C72.34,23.22 72.17,22.65 72.17,21.91L72.17,15.41L70.56,15.41L70.56,14.24L72.17,14.24L72.17,10.87L73.5,10.22L73.5,14.24L75.92,14.24L75.92,15.41L73.5,15.41L73.5,21.51C73.5,22.02 73.58,22.38 73.75,22.61C73.92,22.84 74.19,22.95 74.56,22.95C75.02,22.95 75.5,22.79 76,22.46L75.85,23.77C75.6,23.92 75.32,24.02 75.03,24.09C74.74,24.16 74.44,24.19 74.12,24.19L74.13,24.2Z" style="fill:rgb(2,46,61);fill-rule:nonzero;"/>
                <path d="M74.13,24.45C73.41,24.45 72.86,24.22 72.48,23.78C72.11,23.34 71.92,22.72 71.92,21.92L71.92,15.67L70.31,15.67L70.31,13.99L71.92,13.99L71.92,10.72L73.76,9.82L73.76,13.99L76.18,13.99L76.18,15.67L73.76,15.67L73.76,21.52C73.76,22.08 73.87,22.34 73.96,22.47C74.08,22.63 74.28,22.71 74.57,22.71C74.97,22.71 75.41,22.56 75.87,22.26L76.32,21.96L76.09,23.94L75.98,24C75.71,24.16 75.41,24.27 75.09,24.35C74.78,24.42 74.46,24.46 74.13,24.46L74.13,24.45ZM70.81,15.15L72.42,15.15L72.42,21.91C72.42,22.59 72.57,23.1 72.86,23.45C73.15,23.78 73.56,23.95 74.13,23.95C74.42,23.95 74.71,23.92 74.98,23.85C75.21,23.8 75.42,23.72 75.62,23.61L75.7,22.92C74.83,23.34 73.94,23.29 73.55,22.76C73.35,22.49 73.25,22.08 73.25,21.51L73.25,15.15L75.67,15.15L75.67,14.49L73.25,14.49L73.25,10.62L72.42,11.02L72.42,14.49L70.81,14.49L70.81,15.15Z" style="fill:rgb(2,46,61);fill-rule:nonzero;"/>
            </g>
            <g transform="matrix(1.703518,0,0,1.703518,37.156784,-32.164824)">
                <path d="M42.61,40.61C41.63,40.61 40.79,40.42 40.09,40.03C39.39,39.65 38.82,39.13 38.39,38.47C37.95,37.81 37.63,37.07 37.42,36.25C37.21,35.43 37.11,34.58 37.11,33.71C37.11,32.84 37.22,31.99 37.44,31.16C37.66,30.34 37.99,29.6 38.44,28.95C38.89,28.3 39.46,27.78 40.15,27.39C40.84,27.01 41.66,26.81 42.62,26.81C43.38,26.81 44.02,26.91 44.54,27.12C45.06,27.33 45.49,27.6 45.84,27.93C46.19,28.26 46.48,28.61 46.71,28.97L45.52,29.67C45.22,29.24 44.85,28.86 44.41,28.54C43.97,28.22 43.37,28.06 42.62,28.06C41.87,28.06 41.2,28.23 40.68,28.56C40.15,28.9 39.73,29.34 39.41,29.9C39.09,30.46 38.86,31.06 38.72,31.72C38.58,32.38 38.51,33.03 38.51,33.68C38.51,34.4 38.59,35.1 38.75,35.78C38.91,36.45 39.16,37.05 39.49,37.58C39.82,38.11 40.25,38.52 40.77,38.83C41.29,39.14 41.91,39.29 42.63,39.29C43.27,39.29 43.83,39.15 44.3,38.86C44.77,38.57 45.14,38.16 45.4,37.63C45.66,37.09 45.79,36.45 45.79,35.69L45.79,35.26L43.25,35.26L43.25,34.03L47.19,34.03L47.19,35.31C47.19,36.49 46.99,37.47 46.59,38.25C46.19,39.03 45.65,39.61 44.96,40C44.27,40.39 43.49,40.58 42.63,40.58L42.61,40.61Z" style="fill:rgb(2,46,61);fill-rule:nonzero;"/>
                <path d="M42.61,40.86C41.59,40.86 40.7,40.66 39.96,40.25C39.23,39.85 38.62,39.29 38.17,38.61C37.72,37.93 37.38,37.16 37.17,36.31C36.96,35.47 36.85,34.6 36.85,33.71C36.85,32.82 36.96,31.94 37.19,31.1C37.42,30.25 37.76,29.48 38.23,28.81C38.7,28.12 39.31,27.57 40.03,27.17C40.76,26.77 41.63,26.56 42.62,26.56C43.42,26.56 44.08,26.67 44.64,26.89C45.19,27.11 45.65,27.4 46.02,27.76C46.38,28.11 46.69,28.48 46.93,28.85L47.07,29.07L45.45,30.03L45.32,29.83C45.04,29.43 44.69,29.07 44.27,28.76C43.87,28.47 43.32,28.33 42.63,28.33C41.94,28.33 41.31,28.49 40.82,28.8C40.33,29.11 39.93,29.53 39.64,30.05C39.34,30.58 39.11,31.17 38.98,31.8C38.84,32.44 38.77,33.08 38.77,33.71C38.77,34.41 38.85,35.1 39,35.75C39.15,36.39 39.39,36.97 39.7,37.47C40.01,37.96 40.41,38.35 40.89,38.64C41.37,38.92 41.95,39.07 42.62,39.07C43.22,39.07 43.72,38.94 44.16,38.68C44.59,38.42 44.93,38.04 45.16,37.55C45.4,37.05 45.53,36.43 45.53,35.72L45.53,35.55L42.99,35.55L42.99,33.81L47.44,33.81L47.44,35.34C47.44,36.56 47.23,37.59 46.81,38.4C46.39,39.22 45.8,39.84 45.08,40.25C44.35,40.66 43.53,40.86 42.63,40.86L42.61,40.86ZM42.61,27.07C41.71,27.07 40.92,27.25 40.27,27.61C39.62,27.97 39.07,28.47 38.65,29.09C38.22,29.72 37.9,30.43 37.69,31.22C37.48,32.02 37.37,32.86 37.37,33.7C37.37,34.54 37.47,35.38 37.67,36.18C37.87,36.97 38.18,37.69 38.6,38.32C39.01,38.94 39.55,39.44 40.22,39.8C40.88,40.16 41.68,40.34 42.62,40.34C43.43,40.34 44.18,40.16 44.83,39.79C45.47,39.43 45.98,38.88 46.36,38.15C46.74,37.41 46.93,36.46 46.93,35.33L46.93,34.31L43.5,34.31L43.5,35.03L46.04,35.03L46.04,35.71C46.04,36.5 45.9,37.19 45.62,37.76C45.34,38.34 44.94,38.79 44.42,39.1C43.91,39.41 43.3,39.57 42.62,39.57C41.85,39.57 41.18,39.4 40.63,39.07C40.08,38.74 39.62,38.29 39.27,37.74C38.92,37.19 38.66,36.56 38.5,35.86C38.34,35.17 38.26,34.45 38.26,33.71C38.26,33.05 38.33,32.37 38.48,31.69C38.63,31.01 38.87,30.37 39.2,29.79C39.54,29.2 39.99,28.72 40.55,28.36C41.12,28 41.82,27.82 42.63,27.82C43.44,27.82 44.08,28 44.57,28.35C44.97,28.64 45.32,28.97 45.6,29.35L46.36,28.9C46.17,28.63 45.94,28.37 45.67,28.12C45.35,27.81 44.94,27.55 44.45,27.36C43.96,27.16 43.35,27.06 42.62,27.06L42.61,27.07Z" style="fill:rgb(2,46,61);fill-rule:nonzero;"/>
            </g>
            <g transform="matrix(1.703518,0,0,1.703518,37.156784,-32.164824)">
                <path d="M52.88,40.61C51.73,40.61 50.88,40.26 50.31,39.56C49.74,38.86 49.47,37.8 49.47,36.37L49.47,30.65L50.8,30.65L50.8,36.59C50.8,37.51 50.99,38.2 51.37,38.67C51.75,39.14 52.3,39.37 53.03,39.37C53.84,39.37 54.44,39.12 54.85,38.63C55.26,38.14 55.46,37.42 55.46,36.46L55.46,30.64L56.79,30.64L56.79,40.37L55.46,40.37L55.46,39.2C55.17,39.67 54.81,40.02 54.38,40.25C53.95,40.48 53.45,40.6 52.87,40.6L52.88,40.61Z" style="fill:rgb(2,46,61);fill-rule:nonzero;"/>
                <path d="M52.88,40.86C51.66,40.86 50.73,40.48 50.11,39.72C49.51,38.98 49.21,37.85 49.21,36.37L49.21,30.39L51.05,30.39L51.05,36.59C51.05,37.44 51.22,38.08 51.56,38.51C51.89,38.92 52.37,39.12 53.02,39.12C53.75,39.12 54.29,38.91 54.65,38.47C55.02,38.03 55.21,37.35 55.21,36.47L55.21,30.4L57.05,30.4L57.05,40.64L55.21,40.64L55.21,39.95C55,40.17 54.76,40.35 54.5,40.49C54.04,40.74 53.49,40.87 52.87,40.87L52.88,40.86ZM49.72,30.9L49.72,36.37C49.72,37.73 49.98,38.75 50.51,39.4C51.03,40.04 51.8,40.35 52.88,40.35C53.41,40.35 53.88,40.24 54.27,40.03C54.65,39.82 54.99,39.5 55.26,39.07L55.73,38.32L55.73,40.12L56.56,40.12L56.56,30.9L55.73,30.9L55.73,36.46C55.73,37.47 55.5,38.25 55.06,38.79C54.6,39.34 53.93,39.62 53.04,39.62C52.24,39.62 51.62,39.35 51.19,38.82C50.77,38.31 50.56,37.55 50.56,36.58L50.56,30.89L49.73,30.89L49.72,30.9Z" style="fill:rgb(2,46,61);fill-rule:nonzero;"/>
            </g>
            <g transform="matrix(1.703518,0,0,1.703518,37.156784,-32.164824)">
                <path d="M62.14,40.61C61.11,40.61 60.31,40.32 59.72,39.75C59.14,39.18 58.84,38.38 58.84,37.37C58.84,36.72 58.98,36.16 59.27,35.68C59.56,35.2 59.97,34.84 60.5,34.58C61.03,34.32 61.66,34.2 62.38,34.2C62.86,34.2 63.31,34.26 63.75,34.38C64.18,34.5 64.6,34.68 65.01,34.92L65.01,33.99C65.01,33.17 64.83,32.56 64.47,32.17C64.11,31.78 63.55,31.59 62.8,31.59C62.35,31.59 61.87,31.67 61.37,31.84C60.87,32.01 60.39,32.25 59.94,32.55L59.55,31.43C60.06,31.11 60.62,30.86 61.22,30.68C61.82,30.51 62.4,30.42 62.97,30.42C64.06,30.42 64.89,30.71 65.45,31.28C66.01,31.85 66.29,32.69 66.29,33.8L66.29,40.38L65.02,40.38L65.02,39.28C64.63,39.71 64.19,40.03 63.69,40.27C63.19,40.5 62.68,40.62 62.14,40.62L62.14,40.61ZM62.31,39.44C62.8,39.44 63.27,39.31 63.74,39.05C64.2,38.79 64.63,38.42 65.02,37.94L65.02,36.12C64.65,35.88 64.24,35.69 63.81,35.56C63.38,35.43 62.96,35.36 62.55,35.36C61.82,35.36 61.24,35.54 60.8,35.91C60.37,36.28 60.15,36.76 60.15,37.37C60.15,37.98 60.34,38.5 60.73,38.87C61.12,39.24 61.65,39.43 62.32,39.43L62.31,39.44Z" style="fill:rgb(2,46,61);fill-rule:nonzero;"/>
                <path d="M62.14,40.86C61.05,40.86 60.17,40.55 59.54,39.93C58.91,39.31 58.59,38.45 58.59,37.37C58.59,36.68 58.75,36.07 59.06,35.55C59.37,35.03 59.82,34.63 60.4,34.35C60.96,34.08 61.63,33.94 62.39,33.94C62.88,33.94 63.37,34 63.82,34.13C64.14,34.22 64.45,34.34 64.76,34.49L64.76,33.98C64.76,33.22 64.6,32.67 64.29,32.33C63.98,32 63.48,31.83 62.8,31.83C62.38,31.83 61.93,31.91 61.45,32.07C60.97,32.23 60.51,32.46 60.08,32.75L59.81,32.94L59.25,31.31L59.42,31.2C59.95,30.86 60.53,30.6 61.15,30.42C61.77,30.24 62.38,30.15 62.97,30.15C64.13,30.15 65.02,30.46 65.63,31.08C66.23,31.7 66.54,32.61 66.54,33.78L66.54,40.61L64.76,40.61L64.76,39.85C64.46,40.1 64.14,40.31 63.79,40.47C63.26,40.72 62.7,40.84 62.14,40.84L62.14,40.86ZM62.39,34.45C61.71,34.45 61.11,34.57 60.62,34.81C60.13,35.05 59.76,35.38 59.5,35.81C59.24,36.24 59.11,36.77 59.11,37.36C59.11,38.29 59.38,39.03 59.91,39.56C60.45,40.09 61.18,40.35 62.15,40.35C62.65,40.35 63.13,40.24 63.59,40.03C64.05,39.81 64.47,39.5 64.84,39.1L65.28,38.61L65.28,40.12L66.04,40.12L66.04,33.79C66.04,32.75 65.78,31.96 65.27,31.44C64.76,30.92 63.99,30.66 62.98,30.66C62.44,30.66 61.87,30.74 61.3,30.91C60.79,31.06 60.31,31.26 59.87,31.52L60.09,32.15C60.47,31.92 60.89,31.73 61.31,31.59C61.84,31.41 62.35,31.33 62.82,31.33C63.64,31.33 64.27,31.55 64.68,31.99C65.08,32.42 65.29,33.1 65.29,33.98L65.29,35.36L64.91,35.13C64.52,34.9 64.12,34.73 63.71,34.61C63.3,34.5 62.86,34.44 62.41,34.44L62.39,34.45ZM62.31,39.69C61.57,39.69 60.98,39.48 60.54,39.06C60.1,38.64 59.88,38.08 59.88,37.38C59.88,36.68 60.13,36.14 60.62,35.72C61.36,35.1 62.55,34.93 63.86,35.32C64.32,35.46 64.75,35.66 65.14,35.91L65.26,35.99L65.26,38.04L65.2,38.11C64.79,38.62 64.34,39.01 63.85,39.28C63.35,39.56 62.83,39.7 62.3,39.7L62.31,39.69ZM62.54,35.62C61.88,35.62 61.34,35.78 60.96,36.11C60.58,36.43 60.4,36.84 60.4,37.38C60.4,37.94 60.56,38.37 60.9,38.7C61.24,39.03 61.7,39.19 62.31,39.19C62.75,39.19 63.19,39.07 63.62,38.84C64.03,38.61 64.41,38.28 64.76,37.86L64.76,36.27C64.44,36.08 64.09,35.92 63.73,35.81C63.32,35.69 62.92,35.63 62.54,35.63L62.54,35.62Z" style="fill:rgb(2,46,61);fill-rule:nonzero;"/>
            </g>
            <g transform="matrix(1.703518,0,0,1.703518,37.156784,-32.164824)">
                <path d="M68.72,40.39L68.72,30.65L70.05,30.65L70.05,32.19C70.29,31.62 70.63,31.18 71.05,30.88C71.48,30.57 71.98,30.42 72.54,30.42C73.1,30.42 73.6,30.58 73.97,30.89L73.77,32.16C73.58,32.03 73.37,31.93 73.15,31.87C72.92,31.81 72.68,31.77 72.42,31.77C71.95,31.77 71.54,31.9 71.18,32.17C70.82,32.44 70.55,32.81 70.35,33.28C70.15,33.75 70.05,34.3 70.05,34.93L70.05,40.39L68.72,40.39Z" style="fill:rgb(2,46,61);fill-rule:nonzero;"/>
                <path d="M70.31,40.63L68.47,40.63L68.47,30.39L70.31,30.39L70.31,31.25C70.49,31.02 70.69,30.83 70.91,30.67C71.38,30.34 71.93,30.17 72.55,30.17C73.17,30.17 73.73,30.35 74.14,30.7L74.25,30.79L73.96,32.6L73.63,32.37C73.47,32.25 73.28,32.17 73.08,32.11C72.88,32.05 72.66,32.02 72.42,32.02C72,32.02 71.65,32.13 71.33,32.37C71.01,32.61 70.76,32.95 70.58,33.38C70.39,33.82 70.3,34.34 70.3,34.93L70.3,40.64L70.31,40.63ZM68.97,40.12L69.81,40.12L69.81,34.92C69.81,34.26 69.92,33.68 70.13,33.17C70.35,32.66 70.66,32.25 71.04,31.95C71.44,31.65 71.91,31.5 72.43,31.5C72.72,31.5 72.98,31.54 73.23,31.61C73.35,31.64 73.48,31.69 73.59,31.74L73.71,30.99C73.4,30.77 73.03,30.67 72.56,30.67C72.05,30.67 71.6,30.81 71.21,31.08C70.83,31.35 70.52,31.76 70.29,32.29L69.8,33.44L69.8,30.9L68.97,30.9L68.97,40.12Z" style="fill:rgb(2,46,61);fill-rule:nonzero;"/>
            </g>
            <g transform="matrix(1.703518,0,0,1.703518,37.156784,-32.164824)">
                <path d="M78.02,40.61C76.81,40.61 75.86,40.15 75.16,39.23C74.46,38.31 74.11,37.07 74.11,35.5C74.11,34.45 74.27,33.54 74.59,32.78C74.91,32.02 75.36,31.44 75.96,31.03C76.55,30.62 77.26,30.42 78.08,30.42C79.09,30.42 79.94,30.81 80.64,31.58L80.64,27.27L81.97,26.63L81.97,40.38L80.64,40.38L80.64,39.41C79.96,40.21 79.09,40.61 78.03,40.61L78.02,40.61ZM78.22,39.35C78.7,39.35 79.15,39.21 79.58,38.94C80.01,38.66 80.36,38.29 80.63,37.81L80.63,33.14C80.34,32.68 79.99,32.32 79.56,32.06C79.13,31.8 78.69,31.66 78.22,31.66C77.34,31.66 76.67,31.99 76.19,32.65C75.71,33.31 75.47,34.26 75.47,35.49C75.47,36.25 75.59,36.91 75.82,37.49C76.05,38.07 76.38,38.52 76.79,38.85C77.2,39.18 77.68,39.34 78.22,39.34L78.22,39.35Z" style="fill:rgb(2,46,61);fill-rule:nonzero;"/>
                <path d="M78.02,40.86C76.74,40.86 75.7,40.36 74.95,39.39C74.22,38.43 73.85,37.12 73.85,35.51C73.85,34.43 74.02,33.48 74.35,32.69C74.69,31.89 75.18,31.26 75.81,30.83C76.44,30.39 77.2,30.17 78.07,30.17C78.94,30.17 79.72,30.45 80.38,30.99L80.38,27.11L82.22,26.23L82.22,40.64L80.38,40.64L80.38,40.03C79.73,40.59 78.94,40.87 78.02,40.87L78.02,40.86ZM78.07,30.67C77.31,30.67 76.64,30.86 76.1,31.24C75.55,31.62 75.12,32.17 74.82,32.88C74.52,33.61 74.36,34.49 74.36,35.5C74.36,37 74.7,38.21 75.36,39.08C76.02,39.94 76.89,40.35 78.02,40.35C79.01,40.35 79.8,39.99 80.44,39.24L80.89,38.71L80.89,40.12L81.72,40.12L81.72,27.03L80.89,27.42L80.89,32.24L80.45,31.75C79.8,31.02 79.02,30.67 78.08,30.67L78.07,30.67ZM78.22,39.6C77.62,39.6 77.09,39.42 76.63,39.05C76.19,38.7 75.83,38.21 75.58,37.59C75.33,36.98 75.21,36.27 75.21,35.49C75.21,34.21 75.47,33.2 75.98,32.5C76.51,31.77 77.26,31.4 78.22,31.4C78.73,31.4 79.23,31.55 79.69,31.83C80.15,32.11 80.54,32.5 80.84,32.99L80.88,33.05L80.88,37.86L80.85,37.92C80.56,38.43 80.18,38.84 79.72,39.14C79.25,39.44 78.74,39.59 78.22,39.59L78.22,39.6ZM78.22,31.92C77.42,31.92 76.83,32.21 76.39,32.81C75.95,33.43 75.72,34.33 75.72,35.5C75.72,36.22 75.83,36.86 76.06,37.4C76.28,37.94 76.58,38.36 76.95,38.65C77.65,39.2 78.61,39.25 79.45,38.71C79.83,38.47 80.14,38.14 80.38,37.73L80.38,33.2C80.12,32.81 79.8,32.49 79.43,32.26C79.05,32.02 78.64,31.9 78.22,31.9L78.22,31.92Z" style="fill:rgb(2,46,61);fill-rule:nonzero;"/>
            </g>
            <g>
                <g>
                    <path d="M34.83,23.52C34.89,23.36 34.93,23.19 34.99,23.02C37.05,15.92 37.7,9.78 37.7,9.78C33.69,7.88 22.96,2.38 19.14,0.57C14.19,3.13 5.59,7.2 0.57,9.78C-4.45,12.36 3.87,40.9 19.13,44.07C26.63,42.51 31.23,34.21 33.99,26.18" style="fill:rgb(30,64,175);fill-rule:nonzero;"/>
                    <path d="M19.13,44.64C19.08,44.64 19.02,44.64 18.97,44.62C3.51,41.35 0.14,11.13 0,9.84C-0.02,9.61 0.1,9.38 0.31,9.27C2.77,8 6.14,6.36 9.4,4.76C12.82,3.09 16.35,1.37 18.87,0.06C19.03,-0.02 19.21,-0.02 19.37,0.06C21.25,0.95 24.72,2.69 28.39,4.54C32.08,6.39 35.89,8.31 37.93,9.27C38.2,9.35 38.29,9.57 38.26,9.85C38.26,9.91 37.58,16.12 35.53,23.19L35.46,23.42C35.43,23.52 35.4,23.63 35.36,23.72C35.25,24.02 34.93,24.17 34.63,24.06C34.33,23.95 34.18,23.63 34.29,23.33C34.32,23.25 34.34,23.17 34.37,23.08L34.45,22.84C36.17,16.9 36.91,11.57 37.09,10.12C34.89,9.07 31.33,7.29 27.89,5.56C24.39,3.8 21.07,2.13 19.15,1.21C16.63,2.51 13.21,4.18 9.89,5.8C6.79,7.31 3.6,8.88 1.19,10.11C1.65,13.78 5.43,40.5 19.14,43.49C25.11,42.19 29.92,36.3 33.45,25.99C33.55,25.69 33.87,25.53 34.17,25.64C34.47,25.74 34.63,26.07 34.52,26.36C30.82,37.14 25.68,43.29 19.24,44.63C19.2,44.63 19.16,44.64 19.12,44.64L19.13,44.64Z" style="fill:rgb(24,24,23);fill-rule:nonzero;"/>
                </g>
                <path d="M7.09,31.83L27.77,33.84C27.77,33.84 26.94,39.05 26.26,39.7C25.58,40.35 20.98,44 19.09,43.83C17.2,43.66 8.23,38.25 7.1,31.83L7.09,31.83Z" style="fill:white;fill-rule:nonzero;"/>
                <path d="M19.13,44.64C19.08,44.64 19.02,44.64 18.97,44.62C3.51,41.35 0.14,11.13 0,9.84C-0.02,9.61 0.1,9.38 0.31,9.27C2.77,8 6.14,6.36 9.4,4.76C12.82,3.09 16.35,1.37 18.87,0.06C19.03,-0.02 19.21,-0.02 19.37,0.06C21.25,0.95 24.72,2.69 28.39,4.54C32.08,6.39 35.89,8.31 37.93,9.27C38.2,9.35 38.29,9.57 38.26,9.85C38.26,9.91 37.58,16.12 35.53,23.19L35.46,23.42C35.43,23.52 35.4,23.63 35.36,23.72C35.25,24.02 34.93,24.17 34.63,24.06C34.33,23.95 34.18,23.63 34.29,23.33C34.32,23.25 34.34,23.17 34.37,23.08L34.45,22.84C36.17,16.9 36.91,11.57 37.09,10.12C34.89,9.07 31.33,7.29 27.89,5.56C24.39,3.8 21.07,2.13 19.15,1.21C16.63,2.51 13.21,4.18 9.89,5.8C6.79,7.31 3.6,8.88 1.19,10.11C1.65,13.78 5.43,40.5 19.14,43.49C25.11,42.19 29.92,36.3 33.45,25.99C33.55,25.69 33.87,25.53 34.17,25.64C34.47,25.74 34.63,26.07 34.52,26.36C30.82,37.14 25.68,43.29 19.24,44.63C19.2,44.63 19.16,44.64 19.12,44.64L19.13,44.64Z" style="fill:rgb(24,24,23);fill-rule:nonzero;"/>
                <path d="M29.41,20.7L35.54,23.26L36.41,25.19L28.26,27.54L29.41,20.7Z" style="fill:white;fill-rule:nonzero;"/>
                <path d="M19.13,43.14C19.08,43.14 19.02,43.14 18.97,43.12C4.42,40.04 1.25,11.61 1.12,10.4C1.1,10.17 1.22,9.94 1.43,9.83C3.74,8.64 6.91,7.09 9.98,5.59C13.19,4.02 16.51,2.4 18.87,1.18C19.03,1.1 19.21,1.09 19.37,1.18C21.14,2.02 24.4,3.66 27.85,5.39C31.31,7.13 34.9,8.93 36.81,9.84C37.06,9.92 37.17,10.15 37.14,10.42C37.14,10.48 36.5,16.31 34.57,22.96L34.5,23.18C34.47,23.28 34.44,23.37 34.41,23.47C34.31,23.77 33.98,23.93 33.68,23.81C33.38,23.71 33.23,23.38 33.34,23.08C33.37,23 33.39,22.93 33.41,22.85L33.48,22.62C35.09,17.08 35.78,12.1 35.95,10.69C33.89,9.71 30.56,8.03 27.33,6.41C24.05,4.76 20.93,3.2 19.13,2.33C16.77,3.55 13.56,5.12 10.45,6.64C7.55,8.06 4.55,9.52 2.29,10.68C2.73,14.21 6.3,39.19 19.12,42C24.71,40.77 29.22,35.25 32.54,25.58C32.64,25.28 32.97,25.12 33.26,25.23C33.56,25.33 33.72,25.66 33.61,25.95C30.13,36.09 25.29,41.88 19.23,43.14C19.19,43.14 19.15,43.15 19.11,43.15L19.13,43.14Z" style="fill:white;fill-rule:nonzero;"/>
                <path d="M19.13,44.64C19.08,44.64 19.02,44.64 18.97,44.62C3.51,41.35 0.14,11.13 0,9.84C-0.02,9.61 0.1,9.38 0.31,9.27C2.77,8 6.14,6.36 9.4,4.76C12.82,3.09 16.35,1.37 18.87,0.06C19.03,-0.02 19.21,-0.02 19.37,0.06C21.25,0.95 24.72,2.69 28.39,4.54C32.08,6.39 35.89,8.31 37.93,9.27C38.2,9.35 38.29,9.57 38.26,9.85C38.26,9.91 37.58,16.12 35.53,23.19L35.46,23.42C35.43,23.52 35.4,23.63 35.36,23.72C35.25,24.02 34.93,24.17 34.63,24.06C34.33,23.95 34.18,23.63 34.29,23.33C34.32,23.25 34.34,23.17 34.37,23.08L34.45,22.84C36.17,16.9 36.91,11.57 37.09,10.12C34.89,9.07 31.33,7.29 27.89,5.56C24.39,3.8 21.07,2.13 19.15,1.21C16.63,2.51 13.21,4.18 9.89,5.8C6.79,7.31 3.6,8.88 1.19,10.11C1.65,13.78 5.43,40.5 19.14,43.49C25.11,42.19 29.92,36.3 33.45,25.99C33.55,25.69 33.87,25.53 34.17,25.64C34.47,25.74 34.63,26.07 34.52,26.36C30.82,37.14 25.68,43.29 19.24,44.63C19.2,44.63 19.16,44.64 19.12,44.64L19.13,44.64Z" style="fill:rgb(2,46,61);fill-rule:nonzero;"/>
                <path d="M29.19,28.53C28.96,28.53 28.74,28.39 28.66,28.16C28.55,27.87 28.7,27.54 28.99,27.43L35.93,24.85C35.98,24.83 36.01,24.79 36.01,24.73C36.01,24.67 35.99,24.63 35.93,24.61L29.53,21.86C29.24,21.74 29.11,21.4 29.23,21.11C29.35,20.82 29.69,20.68 29.98,20.81L36.38,23.56C36.86,23.76 37.16,24.23 37.14,24.75C37.13,25.27 36.8,25.72 36.32,25.9L29.38,28.48C29.31,28.5 29.25,28.52 29.18,28.52L29.19,28.53Z" style="fill:rgb(2,46,61);fill-rule:nonzero;"/>
                <g>
                    <path d="M28,34.11L28.2,32.51L28.77,27.96L29.66,20.92C29.72,20.49 29.74,20.07 29.74,19.65C29.74,14.63 25.99,10.25 20.87,9.61C15.33,8.9 10.26,12.84 9.56,18.39L8.5,26.72L8.52,26.56C8.52,26.56 8.14,29.67 7.08,32.61" style="fill:white;fill-rule:nonzero;"/>
                    <path d="M28.57,34.18L27.44,34.04L29.11,20.86C29.16,20.47 29.19,20.08 29.19,19.66C29.19,14.85 25.59,10.78 20.82,10.18C15.6,9.52 10.81,13.23 10.14,18.46L9.1,26.63C9.08,26.76 8.7,29.84 7.63,32.8L6.56,32.41C7.46,29.94 7.86,27.3 7.95,26.64C8.04,25.98 9.01,18.31 9.01,18.31C9.76,12.45 15.11,8.3 20.96,9.04C26.3,9.7 30.32,14.26 30.32,19.65C30.32,20.12 30.29,20.56 30.24,21L28.57,34.18Z" style="fill:rgb(2,46,61);fill-rule:nonzero;"/>
                </g>
                <path d="M22.62,19.93C23.11,18.6 25.07,18.67 25.51,20.02C25.64,20.41 25.7,20.82 25.67,21.26C25.63,21.75 25.47,22.2 25.25,22.59C24.51,23.93 22.48,23.55 22.34,22.02C22.32,21.78 22.32,21.53 22.34,21.25C22.38,20.75 22.48,20.31 22.62,19.93Z" style="fill:rgb(2,46,61);fill-rule:nonzero;"/>
                <path d="M24.96,41.74C24.82,41.74 24.68,41.69 24.58,41.59C24.35,41.38 24.33,41.02 24.55,40.79C26.99,38.13 27.51,33.5 27.52,33.45C27.55,33.14 27.83,32.91 28.15,32.94C28.46,32.97 28.69,33.25 28.66,33.57C28.64,33.77 28.1,38.62 25.4,41.56C25.29,41.68 25.13,41.74 24.98,41.74L24.96,41.74Z" style="fill:rgb(2,46,61);fill-rule:nonzero;"/>
                <path d="M21.05,18.4C20.93,18.4 20.81,18.36 20.71,18.29C20.46,18.1 20.41,17.75 20.59,17.5C20.64,17.44 21.71,16.01 23.41,15.76C24.42,15.61 25.4,15.9 26.35,16.62C26.6,16.81 26.65,17.17 26.46,17.42C26.27,17.67 25.92,17.72 25.66,17.53C24.69,16.8 23.71,16.67 22.75,17.15C21.98,17.53 21.5,18.17 21.49,18.18C21.38,18.33 21.21,18.41 21.03,18.41L21.05,18.4Z" style="fill:rgb(2,46,61);fill-rule:nonzero;"/>
            </g>
        </g>
    </g>
</svg>
